<svg height="512pt" viewBox="0 -26 512 512" width="512pt" xmlns="http://www.w3.org/2000/svg"><path d="m411.0625 130.421875c-14.347656-56.382813-58.636719-100.804687-114.941406-115.34375-68.941406 17.808594-119.867188 80.417969-119.867188 154.925781h-6c-44 0-80 36-80 80 0 23.121094 9.949219 44.019532 25.761719 58.660156.722656-76.707031 63.113281-138.667968 139.984375-138.667968 13.949219 0 27.414062 2.050781 40.128906 5.847656 57.761719 17.253906 99.871094 70.78125 99.871094 134.160156 0 6.789063-.480469 13.464844-1.429688 20h7.429688c29.085938 0 55.371094-12.585937 73.6875-32.578125 16.320312-17.816406 26.3125-41.507812 26.3125-67.425781 0-51.945312-40.144531-94.964844-90.9375-99.578125zm0 0" fill="#7aeae7"/><path d="m284.125 172.824219c-63.839844 13.019531-111.875 69.488281-111.875 137.179687 0 6.789063.480469 13.464844 1.417969 20 8.382812 58.574219 53.023437 105.449219 110.457031 117.164063 57.433594-11.714844 102.078125-58.589844 110.460938-117.164063.933593-6.535156 1.417968-13.210937 1.417968-20-.003906-67.691406-48.035156-124.160156-111.878906-137.179687zm11.875 137.179687v39.996094c0 22-17.996094 39.996094-40 39.996094-22 0-40-17.996094-40-39.996094v-80.003906h10v-14.996094c0-8.839844 3.871094-16.8125 10.003906-22.3125 5.3125-4.773438 12.332032-7.6875 20-7.6875 7.660156 0 14.679688 2.910156 19.996094 7.6875 6.128906 5.5 10.003906 13.476562 10.003906 22.3125v14.996094h9.996094zm0 0" fill="#ff5a5a" fill-rule="evenodd"/><path d="m296 310.003906v-40.007812h-9.996094v-14.996094c0-8.839844-3.875-16.8125-10.003906-22.3125-1.277344-1.148438-2.65625-2.1875-4.117188-3.105469-1.460937.917969-2.84375 1.953125-4.121093 3.105469-6.128907 5.5-10 13.476562-10 22.3125v14.996094h-10v80.003906c0 16.363281 9.960937 30.507812 24.117187 36.683594 14.160156-6.175782 24.121094-20.320313 24.121094-36.683594zm0 0" fill="#ff8c5a" fill-rule="evenodd"/><path d="m512 230c0-27.53125-10.316406-53.921875-29.058594-74.304688-17.015625-18.515624-39.539062-30.558593-64.019531-34.378906-21.363281-71.773437-87.394531-121.316406-162.921875-121.316406-90.40625 0-164.558594 70.9375-169.714844 160.078125-47.90625 1.953125-86.285156 41.542969-86.285156 89.925781 0 49.628906 40.371094 90 90 90h19.019531c13.9375 68.382813 74.542969 119.996094 146.984375 119.996094 72.4375 0 133.050782-51.617188 146.984375-120.007812 60.199219-.53125 109.011719-49.664063 109.011719-109.992188zm-255.996094 210c-71.6875 0-130.003906-58.320312-130.003906-130.003906s58.316406-130 130.003906-130c71.679688 0 130 58.316406 130 130s-58.320312 130.003906-130 130.003906zm149.660156-120.074219c.21875-3.285156.339844-6.59375.339844-9.929687 0-82.710938-67.289062-150-150-150-82.714844 0-150.003906 67.289062-150.003906 150 0 3.363281.121094 6.699218.34375 10.007812h-16.34375c-38.597656 0-70-31.402344-70-70 0-38.601562 31.402344-70 70-70h6c5.523438 0 10-4.480468 10-10 0-82.714844 67.289062-150.003906 150-150.003906 68.679688 0 128.457031 46.421875 145.371094 112.886719 1.042968 4.105469 4.566406 7.105469 8.785156 7.492187 45.894531 4.171875 81.84375 43.539063 81.84375 89.625 0 48.398438-38.398438 87.988282-86.335938 89.921875zm0 0"/><path d="m191.695312 57.019531c-20.050781 11.414063-36.746093 28.007813-48.277343 47.980469-2.761719 4.78125-1.121094 10.898438 3.660156 13.660156 1.574219.910156 3.292969 1.34375 4.988281 1.34375 3.457032 0 6.820313-1.792968 8.671875-5.003906 9.757813-16.898438 23.882813-30.9375 40.851563-40.601562 4.800781-2.730469 6.476562-8.835938 3.742187-13.636719-2.730469-4.796875-8.835937-6.476563-13.636719-3.742188zm0 0"/><path d="m222.941406 44.277344-.1875.046875c-5.328125 1.386719-8.480468 6.808593-7.117187 12.140625 1.152343 4.515625 5.25 7.515625 9.722656 7.515625.808594 0 1.632813-.101563 2.453125-.304688.003906-.003906.050781-.015625.054688-.015625 5.351562-1.351562 8.574218-6.777344 7.226562-12.132812-1.347656-5.347656-6.796875-8.589844-12.152344-7.25zm0 0"/><path d="m451.496094 180.507812c-3.902344-3.90625-10.234375-3.90625-14.140625 0-3.90625 3.902344-3.902344 10.234376 0 14.140626 9.445312 9.441406 14.648437 22 14.648437 35.355468 0 4.394532-.582031 8.773438-1.726562 13.015625-1.4375 5.332031 1.71875 10.820313 7.050781 12.261719.871094.234375 1.746094.347656 2.609375.347656 4.410156 0 8.445312-2.9375 9.648438-7.398437 1.601562-5.9375 2.414062-12.070313 2.414062-18.226563.003906-18.699218-7.277344-36.277344-20.503906-49.496094zm0 0"/><path d="m437.503906 265.210938c-.140625.136718-.277344.277343-.414062.425781-3.75 4.054687-3.507813 10.378906.546875 14.132812 1.921875 1.78125 4.359375 2.664063 6.789062 2.664063 2.625 0 5.238281-1.027344 7.195313-3.054688.011718-.011718.023437-.019531.027344-.027344 3.898437-3.898437 3.886718-10.195312-.003907-14.105468-3.886719-3.90625-10.222656-3.914063-14.140625-.035156zm0 0"/><path d="m338.5 320.003906c5.523438 0 10-4.480468 10-10 0-5.523437-4.476562-10-10-10h-32.5v-20.007812h11.875c2.652344 0 5.195312-1.050782 7.070312-2.929688l20.625-20.625c3.90625-3.90625 3.90625-10.234375 0-14.140625s-10.238281-3.90625-14.144531 0l-17.691406 17.695313h-17.730469v-4.996094c0-10.117188-3.785156-19.363281-10.003906-26.417969v-19.023437c0-5.519532-4.476562-10-10-10s-10 4.480468-10 10v6.707031c-3.195312-.828125-6.550781-1.265625-10-1.265625s-6.800781.4375-9.996094 1.265625v-6.707031c0-5.519532-4.480468-10-10-10-5.527344 0-10 4.480468-10 10v19.023437c-6.222656 7.054688-10.003906 16.300781-10.003906 26.417969v4.996094h-17.730469l-17.695312-17.691406c-3.90625-3.90625-10.238281-3.90625-14.144531-.003907-3.902344 3.90625-3.902344 10.234375 0 14.144531l20.625 20.625c1.875 1.875 4.417968 2.929688 7.070312 2.929688h11.875v20.003906h-32.496094c-5.527344 0-10 4.476563-10 10 0 5.519532 4.472656 10 10 10h32.496094v19.996094h-11.875c-2.652344 0-5.195312 1.054688-7.070312 2.929688l-20.625 20.625c-3.902344 3.90625-3.902344 10.234374 0 14.140624 1.953124 1.953126 4.511718 2.929688 7.074218 2.929688 2.554688 0 5.117188-.976562 7.066406-2.929688l17.699219-17.695312h8.738281c4.644532 22.792969 24.847657 39.996094 48.992188 39.996094s44.351562-17.203125 48.992188-39.996094h8.742187l17.691406 17.695312c1.953125 1.953126 4.511719 2.929688 7.074219 2.929688 2.558594 0 5.117188-.976562 7.070312-2.929688 3.902344-3.90625 3.90625-10.234374 0-14.144531l-20.625-20.625c-1.875-1.875-4.417968-2.925781-7.070312-2.925781h-11.875v-20h32.5zm-82.496094-85.003906c11.023438 0 20 8.972656 20 20v4.996094h-40.003906v-4.996094c0-11.027344 8.972656-20 20.003906-20zm9.996094 143.277344v-68.273438c0-5.523437-4.476562-10-10-10s-10 4.476563-10 10v68.273438c-11.640625-4.128906-20-15.242188-20-28.277344v-70.003906h60v70.003906c0 13.035156-8.359375 24.148438-20 28.277344zm0 0"/></svg>